<?xml version="1.0"?>
<svg xmlns="http://www.w3.org/2000/svg" xmlns:xlink="http://www.w3.org/1999/xlink" version="1.1" id="Capa_1" x="0px" y="0px" viewBox="0 0 511.998 511.998" style="enable-background:new 0 0 511.998 511.998;" xml:space="preserve" width="512px" height="512px" class=""><g><path style="fill:#FF7701" d="M261.197,15.67L261.197,15.67c10.014-17.465,33.711-20.998,48.384-7.214l67.424,63.336  c9.491,8.915,23.145,11.827,35.447,7.56l0.703-0.244c18.765-6.509,38.751,5.957,41.158,25.672l11.236,92.015  c1.541,12.62,9.802,23.413,21.581,28.196l2.072,0.841c18.183,7.384,25.101,29.533,14.353,45.953l-50.629,77.348  c-6.886,10.521-7.602,23.926-1.876,35.121l1.705,3.333c8.9,17.399-0.22,38.602-18.972,44.106l-88.144,25.872  c-12.154,3.568-21.434,13.422-24.266,25.768l-1.02,4.445c-4.393,19.153-25.197,29.514-43.13,21.478l-83.284-37.316  c-11.808-5.291-25.572-3.638-35.792,4.299l-3.427,2.661c-15.708,12.198-38.667,6.767-47.244-11.176l-39.222-82.051  c-5.719-11.965-17.708-19.672-30.968-19.907l-3.194-0.057c-20.139-0.357-34.658-19.435-29.634-38.941l22.7-88.144  c3.365-13.065-1.076-26.9-11.416-35.566l-1.252-1.05c-15.562-13.043-14.699-37.246,1.753-49.147l74.08-53.587  c10.959-7.927,16.372-21.458,13.904-34.756l-0.066-0.358c-3.704-19.964,12.362-38.084,32.625-36.796l91.817,5.833  C241.92,34.041,254.56,27.245,261.197,15.67z" data-original="#EB6E8B" class="" data-old_color="#EB6E8B"/><circle style="fill:#FFD600" cx="255.999" cy="256" r="178.4" data-original="#F6CE6E" class="" data-old_color="#F6CE6E"/><path style="opacity:0.1;enable-background:new    ;" d="M373.238,121.537c24.685,30.606,39.473,69.527,39.473,111.909  c0,98.528-79.872,178.4-178.4,178.4c-44.881,0-85.886-16.578-117.239-43.938c32.702,40.547,82.781,66.492,138.927,66.492  c98.528,0,178.4-79.872,178.4-178.4C434.399,202.353,410.715,154.241,373.238,121.537z" data-original="#000000" class=""/><g>
	<path style="fill:#FFD600" d="M173.333,261.107c-4.142,0-7.5-3.358-7.5-7.5v-9.897c0-4.142,3.358-7.5,7.5-7.5s7.5,3.358,7.5,7.5   v9.897C180.833,257.749,177.475,261.107,173.333,261.107z" data-original="#3F4C58" class="active-path" data-old_color="#3F4C58"/>
	<path style="fill:#FFD600" d="M349.441,261.986c-4.142,0-7.5-3.358-7.5-7.5c0-1.806-1.47-3.276-3.276-3.276   s-3.276,1.47-3.276,3.276c0,4.142-3.358,7.5-7.5,7.5s-7.5-3.358-7.5-7.5c0-10.077,8.199-18.276,18.276-18.276   s18.276,8.199,18.276,18.276C356.941,258.628,353.583,261.986,349.441,261.986z" data-original="#3F4C58" class="active-path" data-old_color="#3F4C58"/>
	<path style="fill:#FFD600" d="M255.999,275.79c-6.973,0-13.573-3.379-17.656-9.039c-2.423-3.36-1.665-8.047,1.695-10.47   c3.36-2.425,8.047-1.664,10.47,1.695c1.29,1.789,3.291,2.814,5.491,2.814c2.198,0,4.199-1.025,5.49-2.813   c2.424-3.357,7.112-4.116,10.471-1.691c3.358,2.424,4.116,7.112,1.692,10.471C269.568,272.413,262.969,275.79,255.999,275.79z" data-original="#3F4C58" class="active-path" data-old_color="#3F4C58"/>
</g><g>
	<path style="fill:#EB7D16" d="M43.966,85.688c-4.142,0-7.5-3.358-7.5-7.5v-1.177c0-4.142,3.358-7.5,7.5-7.5s7.5,3.358,7.5,7.5   v1.177C51.466,82.331,48.108,85.688,43.966,85.688z" data-original="#E5567E" class="" data-old_color="#E5567E"/>
	<path style="fill:#EB7D16" d="M401.777,42.783c-4.142,0-7.5-3.358-7.5-7.5v-1.177c0-4.142,3.358-7.5,7.5-7.5s7.5,3.358,7.5,7.5   v1.177C409.277,39.425,405.919,42.783,401.777,42.783z" data-original="#E5567E" class="" data-old_color="#E5567E"/>
	<path style="fill:#EB7D16" d="M476.971,93.192c-4.142,0-7.5-3.358-7.5-7.5v-1.177c0-4.142,3.358-7.5,7.5-7.5s7.5,3.358,7.5,7.5   v1.177C484.471,89.834,481.113,93.192,476.971,93.192z" data-original="#E5567E" class="" data-old_color="#E5567E"/>
	<path style="fill:#EB7D16" d="M462.941,465.173c-4.142,0-7.5-3.358-7.5-7.5v-1.177c0-4.142,3.358-7.5,7.5-7.5s7.5,3.358,7.5,7.5   v1.177C470.441,461.815,467.083,465.173,462.941,465.173z" data-original="#E5567E" class="" data-old_color="#E5567E"/>
	<path style="fill:#EB7D16" d="M36.999,424.088c-4.142,0-7.5-3.358-7.5-7.5v-1.177c0-4.142,3.358-7.5,7.5-7.5s7.5,3.358,7.5,7.5   v1.177C44.499,420.73,41.141,424.088,36.999,424.088z" data-original="#E5567E" class="" data-old_color="#E5567E"/>
	<path style="fill:#EB7D16" d="M62.999,471.677c-4.142,0-7.5-3.358-7.5-7.5V463c0-4.142,3.358-7.5,7.5-7.5s7.5,3.358,7.5,7.5v1.177   C70.499,468.319,67.141,471.677,62.999,471.677z" data-original="#E5567E" class="" data-old_color="#E5567E"/>
</g></g> </svg>
